<svg xmlns="http://www.w3.org/2000/svg" width="56" height="56" fill="none" viewBox="0 0 60 60">
    <g clip-path="url(#clip0)">
        <path fill="#329D23" fill-rule="evenodd" d="M30.698 4.174c-.448-.18-.948-.18-1.396 0l-22.38 8.951 9.015 3.604L39.016 7.5l-8.317-3.326zM44.062 9.52L20.985 18.75 30 22.354l23.078-9.229-9.016-3.604zm12.188 6.375l-24.375 9.75v29.708l24.375-9.75V15.896zM28.125 55.358V25.643L3.75 15.895v29.712l24.375 9.75zM27.911.69c1.341-.536 2.837-.536 4.178 0l26.733 10.695c.348.14.646.38.856.69.21.31.322.676.322 1.05v32.483c0 .749-.225 1.48-.646 2.101-.42.62-1.017 1.1-1.713 1.378L30.698 59.865c-.448.18-.948.18-1.396 0L2.362 49.087C1.667 48.81 1.07 48.33.648 47.71c-.42-.62-.646-1.353-.647-2.102V13.125c0-.374.112-.74.322-1.05.21-.31.508-.55.855-.69L27.912.69z" clip-rule="evenodd"/>
    </g>
    <defs>
        <clipPath id="clip0">
            <path fill="#fff" d="M0 0H60V60H0z"/>
        </clipPath>
    </defs>
</svg>
