<svg xmlns="http://www.w3.org/2000/svg" width="24" height="24" fill="none" viewBox="0 0 24 24">
    <path fill="#000" d="M21.822 7.431c-.092-.133-.215-.242-.358-.317C21.321 7.04 21.162 7 21 7H7.333L6.179 4.23c-.151-.365-.408-.676-.736-.895-.329-.22-.715-.336-1.11-.335H2v2h2.333l4.744 11.385c.076.182.204.338.368.447.165.11.358.168.555.168h8c.417 0 .79-.259.937-.648l3-8c.057-.151.076-.314.056-.475-.02-.16-.079-.313-.171-.446zM10.5 21c.828 0 1.5-.672 1.5-1.5s-.672-1.5-1.5-1.5-1.5.672-1.5 1.5.672 1.5 1.5 1.5zM17.5 21c.828 0 1.5-.672 1.5-1.5s-.672-1.5-1.5-1.5-1.5.672-1.5 1.5.672 1.5 1.5 1.5z"/>
</svg>
