<svg xmlns="http://www.w3.org/2000/svg" width="20" height="20" fill="none" viewBox="0 0 20 20">
    <g clip-path="url(#clip0)">
        <path fill="#000" d="M13.875.77c-.806.008-1.632.165-2.44.487l-.036.016-.037.019c-.512.26-.979.587-1.394.974C7.734.334 4.178.194 1.745 2.387l-.024.022-.023.024C-.436 4.662-.386 8.095.893 10.808l.012.02.01.023c1.507 2.79 4.32 5.161 6.885 7.11l.007.006.005.004c.165.121.449.371.776.617.328.246.697.516 1.239.62l.12.023.123-.01c.568-.05.791-.259 1.164-.494.373-.235.787-.533 1.211-.86.837-.643 1.702-1.384 2.272-1.913l.027-.023.004-.003c1.2-1.025 2.39-2.206 3.398-3.596l.001-.001.006-.008c1.6-2.153 2.375-5.055 1.45-7.914l-.017-.05-.022-.049C18.524 2.065 16.29.745 13.874.77zm.029 1.758c1.74-.04 3.266.892 4.023 2.486.7 2.232.095 4.506-1.208 6.256l-.004.005-.003.004c-.908 1.253-2.008 2.35-3.147 3.32l-.015.013-.014.014c-.514.478-1.382 1.222-2.176 1.832-.397.305-.777.578-1.073.764-.111.07-.217.117-.304.154-.09-.05-.206-.12-.326-.21-.242-.181-.5-.413-.78-.62l-.013-.01c-2.488-1.893-5.11-4.19-6.37-6.508-1.023-2.185-.978-4.802.467-6.34 1.966-1.747 4.886-1.367 6.342.427l.71.873.685-.891c.395-.512.866-.904 1.438-1.2.6-.235 1.195-.356 1.768-.369z"/>
    </g>
    <defs>
        <clipPath id="clip0">
            <path fill="#fff" d="M0 0H20V20H0z"/>
        </clipPath>
    </defs>
</svg>
