<svg xmlns="http://www.w3.org/2000/svg" width="70" height="70" fill="none" viewBox="0 0 70 70">
    <path fill="#329D23" d="M35.001 30.545l-3.55 10.926H19.96l9.296 6.752-3.553 10.925 9.297-6.75 9.295 6.75-3.553-10.925 9.295-6.752H38.549l-3.548-10.926zm3.104 16.538l1.916 5.901-5.02-3.648-5.025 3.648 1.92-5.901-5.022-3.65h6.209L35 37.533l1.918 5.902h6.206l-5.02 3.649z"/>
    <path fill="#329D23" d="M48.844 29.005v-9.513c0-.398-.218-.733-.526-.94L59.063 2.187H38.462l-3.46 5.19-3.462-5.19H10.939L21.68 18.55c-.158.101-.29.24-.38.405-.092.164-.142.349-.145.537v9.513c-4.9 4.012-8.031 10.105-8.031 16.933 0 12.08 9.794 21.874 21.875 21.874h.001c.745 0 1.481-.038 2.206-.111 11.044-1.106 19.668-10.427 19.668-21.763 0-6.828-3.13-12.921-8.031-16.933zm-4.19-25.724h6.92l-9.652 14.48-3.46-5.19 6.191-9.29zm.729 19.671l1.064-1.594c.057.136.09.285.09.441v4.615c-.003.288-.12.564-.325.766-3.281-1.967-7.108-3.117-11.212-3.117-3.951 0-7.828 1.078-11.212 3.118-.206-.203-.322-.478-.325-.767V21.8c0-.156.033-.306.09-.441l1.064 1.595h20.766zM18.425 3.282h6.922l12.385 18.577h-6.921L18.425 3.28zM35 64.531c-10.268 0-18.594-8.325-18.594-18.594 0-10.27 8.326-18.594 18.594-18.594s18.594 8.324 18.594 18.593c0 10.27-8.326 18.594-18.594 18.594z"/>
</svg>
