<svg xmlns="http://www.w3.org/2000/svg" width="70" height="70" fill="none" viewBox="0 0 70 70">
    <path fill="#329D23" d="M37.1 31.5c-1.4-.35-2.8-1.05-3.85-2.1-1.05-.35-1.4-1.4-1.4-2.1 0-.7.35-1.75 1.05-2.1 1.05-.7 2.1-1.4 3.15-1.05 2.1 0 3.85 1.05 4.9 2.45l3.15-4.2c-1.05-1.05-2.1-1.75-3.15-2.45-1.05-.7-2.45-1.05-3.85-1.05V14h-4.2v4.9c-1.75.35-3.5 1.4-4.9 2.8-1.4 1.75-2.45 3.85-2.1 5.95 0 2.1.7 4.2 2.1 5.6 1.75 1.75 4.2 2.8 6.3 3.85 1.05.35 2.45 1.05 3.5 1.75.7.7 1.05 1.75 1.05 2.8 0 1.05-.35 2.1-1.05 3.15-1.05 1.05-2.45 1.4-3.5 1.4-1.4 0-3.15-.35-4.2-1.4-1.05-.7-2.1-1.75-2.8-2.8l-3.5 3.85c1.05 1.4 2.1 2.45 3.5 3.5 1.75 1.05 3.85 2.1 5.95 2.1V56h3.85v-5.25c2.1-.35 3.85-1.4 5.25-2.8 1.75-1.75 2.8-4.55 2.8-7 0-2.1-.7-4.55-2.45-5.95-1.75-1.75-3.5-2.8-5.6-3.5zM35 7C19.6 7 7 19.6 7 35s12.6 28 28 28 28-12.6 28-28S50.4 7 35 7zm0 52.15C21.7 59.15 10.85 48.3 10.85 35c0-13.3 10.85-24.15 24.15-24.15 13.3 0 24.15 10.85 24.15 24.15 0 13.3-10.85 24.15-24.15 24.15z"/>
</svg>
