<svg xmlns="http://www.w3.org/2000/svg" width="37" height="38" fill="none" viewBox="0 0 37 38">
    <path fill="#BDBDBD" d="M29.23 5.32H7.77c-1.425 0-2.59 1.197-2.59 2.66v22.04c0 1.463 1.165 2.66 2.59 2.66h21.46c1.424 0 2.59-1.197 2.59-2.66V7.98c0-1.463-1.166-2.66-2.59-2.66zm-4.546 22.865c-.858.415-1.635.707-2.33.874-.696.167-1.448.25-2.256.25-.918 0-1.729-.118-2.434-.356-.706-.238-1.307-.579-1.805-1.018-.499-.441-.844-.91-1.036-1.406-.192-.496-.289-1.215-.289-2.158V17.14h-2.219V14.22c.789-.263 1.465-.64 2.027-1.132.562-.491 1.023-1.093 1.354-1.77.34-.689.574-1.565.702-2.629h2.856v5.212h4.765v3.237h-4.765v5.288c0 1.195.061 1.962.185 2.303.123.339.353.61.688.812.444.273.952.41 1.524.41 1.016 0 2.027-.339 3.033-1.018v3.251z"/>
</svg>
