<svg xmlns="http://www.w3.org/2000/svg" width="38" height="38" fill="none" viewBox="0 0 38 38">
    <path fill="#BDBDBD" d="M31.17 5.32H6.83c-.4 0-.784.159-1.067.442-.284.283-.443.667-.443 1.068v24.34c0 .4.16.784.443 1.068.283.283.667.442 1.067.442h13.104V22.085h-3.566v-4.13h3.566V14.91c0-3.534 2.158-5.458 5.31-5.458 1.511 0 2.809.112 3.187.163v3.693l-2.186.001c-1.715 0-2.047.815-2.047 2.01v2.637h4.09l-.533 4.129h-3.557V32.68h6.973c.4 0 .784-.16 1.067-.443.283-.283.442-.667.442-1.067V6.83c0-.4-.159-.785-.442-1.068-.283-.283-.667-.442-1.068-.442z"/>
</svg>
