<svg xmlns="http://www.w3.org/2000/svg" width="38" height="38" fill="none" viewBox="0 0 38 38">
    <path fill="#BDBDBD" fill-rule="evenodd" d="M24.773 16.39c-.392 0-.768.083-1.13.249-.363.166-.705.377-1.028.631-.327.258-.636.537-.925.837-.293.303-.558.582-.793.836.262.3.536.59.822.865.29.282.605.537.94.764.325.22.675.403 1.042.543.362.137.749.205 1.16.205.723 0 1.281-.235 1.673-.704.391-.47.587-1.047.587-1.732s-.21-1.272-.631-1.761c-.42-.489-.993-.733-1.717-.733zM16.554 18.107c-.31-.3-.638-.58-.983-.837-.334-.249-.693-.46-1.072-.631-.372-.166-.744-.25-1.115-.25-.685 0-1.229.26-1.63.779-.401.518-.602 1.1-.602 1.746 0 .704.206 1.282.617 1.732.41.45.978.674 1.703.674.37 0 .743-.073 1.115-.22.371-.146.726-.333 1.057-.557.332-.225.646-.48.939-.763.277-.267.542-.546.793-.837-.267-.286-.54-.565-.822-.837z" clip-rule="evenodd"/>
    <path fill="#BDBDBD" fill-rule="evenodd" d="M30.02 5.32H7.98c-.705 0-1.382.28-1.88.779-.5.499-.78 1.175-.78 1.88v22.04c0 .706.28 1.383.78 1.882.498.499 1.175.779 1.88.779h22.04c.706 0 1.382-.28 1.881-.78.5-.498.78-1.175.78-1.88V7.98c0-.706-.28-1.382-.78-1.881-.499-.499-1.175-.78-1.88-.78zm-.49 15.619c-.236.665-.568 1.247-.999 1.746-.43.499-.964.89-1.6 1.174-.636.284-1.346.425-2.128.425-.607 0-1.174-.092-1.703-.278-.522-.183-1.02-.43-1.482-.734-.468-.31-.906-.664-1.307-1.057-.409-.398-.8-.814-1.174-1.247-.399.418-.8.834-1.204 1.247-.38.392-.798.746-1.248 1.057-.445.306-.929.553-1.438.734-.519.186-1.1.279-1.747.279-.802 0-1.517-.142-2.143-.426-.627-.283-1.165-.665-1.615-1.145-.45-.479-.792-1.051-1.027-1.717-.235-.665-.352-1.38-.352-2.143 0-.763.112-1.471.337-2.128.225-.655.553-1.222.983-1.702.43-.479.96-.86 1.586-1.145.626-.283 1.33-.425 2.113-.425.646 0 1.238.098 1.777.294.53.192 1.034.453 1.497.777.46.323.89.695 1.291 1.116.411.432.808.877 1.19 1.335.372-.452.759-.892 1.159-1.32.39-.421.823-.8 1.291-1.131.463-.324.966-.586 1.498-.777.538-.196 1.12-.294 1.746-.294.783 0 1.488.136 2.114.41.626.275 1.154.651 1.585 1.13.43.48.763 1.043.999 1.688.234.646.352 1.35.352 2.113 0 .763-.116 1.479-.352 2.144z" clip-rule="evenodd"/>
</svg>
