<svg xmlns="http://www.w3.org/2000/svg" width="38" height="38" fill="none" viewBox="0 0 38 38">
    <path fill="#BDBDBD" d="M9.574 19.604c.668.524 1.431.786 2.29.786 1.085-.04 1.989-.43 2.712-1.169.35-.523.573-1.06.673-1.61.06-.55.09-1.015.09-1.39 0-1.626-.416-3.264-1.247-4.917-.39-.792-.903-1.436-1.54-1.934-.65-.47-1.396-.718-2.24-.745-1.117.027-2.046.477-2.786 1.35-.625.914-.924 1.934-.896 3.062 0 1.49.436 3.043 1.308 4.654.413.74.969 1.39 1.636 1.913zM12.077 25.86c-.3-.395-.566-.815-.794-1.255-.272-.43-.407-.95-.407-1.556 0-.364.051-.667.155-.91.083-.236.167-.472.252-.707-.44.052-.882.08-1.325.08-1.964-.023-3.51-.58-4.638-1.667v7.349c.998-.459 2.05-.786 3.132-.973 1.455-.215 2.663-.335 3.625-.362zM13.201 27.023c-.307-.029-.616-.043-.925-.04-.21-.027-.748 0-1.614.08-.886.128-1.761.323-2.618.583-.21.081-.506.201-.886.362-.38.175-.768.422-1.161.745-.257.227-.484.485-.677.77v1.12c0 .505.202.99.559 1.346.357.358.841.559 1.346.56H17.61l.002-.077c0-1.045-.342-1.957-1.024-2.734-.722-.738-1.85-1.642-3.386-2.715z"/>
    <path fill="#BDBDBD" d="M30.775 5.452H7.225c-.505 0-.99.2-1.347.558-.357.357-.557.842-.558 1.347v2.555c.12-.128.245-.255.375-.38 1.171-.965 2.389-1.594 3.652-1.89 1.25-.255 2.423-.382 3.516-.382h8.243l-2.545 1.486h-2.542c.259.16.55.396.873.704.31.322.615.717.913 1.186.285.442.537.965.757 1.568.18.603.271 1.307.271 2.111-.024 1.475-.35 2.654-.976 3.539-.298.417-.624.813-.976 1.186-.397.377-.803.745-1.216 1.105-.254.266-.482.556-.68.865-.246.335-.37.723-.37 1.166 0 .429.127.783.378 1.065.195.246.403.482.624.704l1.398 1.147c.851.692 1.619 1.48 2.286 2.351.618.872.939 2.011.964 3.418 0 .582-.075 1.144-.225 1.687h10.735c.505 0 .99-.201 1.347-.559.357-.357.558-.841.558-1.346V7.357c0-.506-.201-.99-.558-1.347-.357-.357-.842-.558-1.347-.558zm1.5 8.404h-4.326v4.326h-2.095v-4.326h-4.325v-2.095h4.325V7.436h2.095v4.325h4.325v2.095z"/>
</svg>
