<svg xmlns="http://www.w3.org/2000/svg" width="38" height="38" fill="none" viewBox="0 0 38 38">
    <path fill="#BDBDBD" d="M17.173 26.748c-.264.374-.515.559-.754.559-.16 0-.25-.094-.28-.28-.011-.038-.011-.183-.011-.463v-4.849h-1.193v5.208c0 .465.04.78.106.979.119.333.384.49.768.49.44 0 .89-.265 1.364-.81v.72h1.194v-6.586h-1.194v5.032zM10.6 20.707h1.404v7.594h1.327v-7.594h1.43v-1.244H10.6v1.244zM18.727 14.949c.389 0 .575-.308.575-.924v-2.8c0-.615-.186-.922-.575-.922-.39 0-.576.307-.576.922v2.8c0 .615.187.924.576.924zM21.825 21.635c-.438 0-.847.24-1.232.715v-2.887h-1.194V28.3h1.194v-.639c.398.494.808.73 1.232.73.476 0 .795-.25.954-.74.08-.28.12-.718.12-1.327v-2.622c0-.624-.04-1.06-.12-1.324-.16-.494-.478-.744-.954-.744zm-.119 4.783c0 .595-.175.889-.519.889-.196 0-.395-.094-.594-.293v-4.015c.2-.196.398-.29.594-.29.345 0 .52.305.52.899v2.81zM25.626 21.635c-.609 0-1.085.225-1.429.676-.254.332-.369.847-.369 1.55v2.308c0 .699.13 1.22.384 1.548.344.45.82.674 1.444.674.623 0 1.112-.236 1.443-.713.146-.214.24-.459.278-.716.011-.12.026-.384.026-.768v-.175h-1.218c0 .479-.015.744-.026.809-.068.318-.24.478-.533.478-.41 0-.609-.304-.609-.914v-1.167h2.386v-1.364c0-.704-.12-1.218-.37-1.55-.333-.451-.808-.676-1.407-.676zm.584 2.597h-1.193v-.609c0-.609.2-.914.598-.914.395 0 .595.305.595.914v.61z"/>
    <path fill="#BDBDBD" d="M30.02 5.32H7.98c-1.463 0-2.66 1.197-2.66 2.66v22.04c0 1.463 1.197 2.66 2.66 2.66h22.04c1.463 0 2.66-1.197 2.66-2.66V7.98c0-1.463-1.197-2.66-2.66-2.66zM21.5 9.298h1.203v4.9c0 .283 0 .43.015.469.026.187.12.282.282.282.241 0 .495-.187.762-.565V9.298h1.206v6.654h-1.206v-.726c-.48.551-.938.819-1.378.819-.388 0-.656-.158-.776-.496-.067-.2-.107-.52-.107-.99V9.3zm-4.554 2.17c0-.711.12-1.232.377-1.568.334-.455.804-.682 1.404-.682.604 0 1.073.227 1.407.682.253.336.375.857.375 1.567V13.8c0 .707-.122 1.231-.375 1.565-.334.453-.802.68-1.407.68-.6 0-1.07-.227-1.404-.68-.256-.334-.377-.858-.377-1.565v-2.332zM13.72 7.022l.95 3.506.911-3.506h1.352l-1.608 5.313v3.616h-1.338v-3.616c-.12-.641-.388-1.58-.816-2.825-.283-.829-.576-1.66-.858-2.488h1.407zm14.807 21.674c-.24 1.05-1.1 1.824-2.134 1.94-2.449.273-4.927.274-7.394.273-2.467.001-4.945 0-7.393-.274-1.034-.115-1.892-.89-2.134-1.94-.344-1.495-.344-3.128-.344-4.667 0-1.54.004-3.171.349-4.667.24-1.05 1.099-1.824 2.133-1.94 2.448-.274 4.926-.275 7.393-.274 2.467 0 4.945 0 7.394.274 1.033.116 1.893.89 2.134 1.94.344 1.496.342 3.127.342 4.668 0 1.538-.002 3.171-.346 4.667z"/>
</svg>
