<svg xmlns="http://www.w3.org/2000/svg" width="212" height="60" fill="none" viewBox="0 0 212 60">
    <path fill="#000" d="M115.17 27.769c-2.1 0-3.993-.428-5.678-1.282-1.661-.88-2.968-2.089-3.92-3.627-.928-1.539-1.392-3.285-1.392-5.239 0-1.954.464-3.7 1.392-5.239.952-1.538 2.259-2.735 3.92-3.59 1.685-.88 3.578-1.319 5.678-1.319 2.076 0 3.883.44 5.422 1.32 1.563.854 2.699 2.087 3.407 3.7l-4.433 2.38c-1.026-1.807-2.503-2.71-4.433-2.71-1.489 0-2.723.488-3.7 1.465-.977.977-1.465 2.308-1.465 3.993s.488 3.016 1.465 3.993c.977.977 2.211 1.466 3.7 1.466 1.954 0 3.432-.904 4.433-2.711l4.433 2.418c-.708 1.563-1.844 2.784-3.407 3.663-1.539.88-3.346 1.319-5.422 1.319zM139.126 7.473c2.442 0 4.408.733 5.898 2.198 1.514 1.466 2.271 3.64 2.271 6.521v11.284h-5.715V17.072c0-1.563-.342-2.724-1.025-3.48-.684-.782-1.673-1.173-2.968-1.173-1.441 0-2.589.452-3.443 1.355-.855.88-1.283 2.199-1.283 3.957v9.745h-5.715V.293h5.715v9.525c.757-.757 1.673-1.331 2.748-1.722 1.075-.415 2.247-.623 3.517-.623zM162.069 27.769c-2.076 0-3.945-.428-5.605-1.282-1.637-.88-2.919-2.089-3.847-3.627-.928-1.539-1.392-3.285-1.392-5.239 0-1.954.464-3.7 1.392-5.239.928-1.538 2.21-2.735 3.847-3.59 1.66-.88 3.529-1.319 5.605-1.319 2.076 0 3.932.44 5.568 1.32 1.637.854 2.919 2.05 3.847 3.59.928 1.538 1.392 3.284 1.392 5.238 0 1.954-.464 3.7-1.392 5.239-.928 1.538-2.21 2.747-3.847 3.627-1.636.854-3.492 1.282-5.568 1.282zm0-4.69c1.465 0 2.662-.488 3.59-1.465.952-1.001 1.429-2.332 1.429-3.993 0-1.66-.477-2.98-1.429-3.956-.928-1.002-2.125-1.502-3.59-1.502-1.466 0-2.675.5-3.627 1.502-.953.977-1.429 2.295-1.429 3.956 0 1.66.476 2.992 1.429 3.993.952.977 2.161 1.466 3.627 1.466zM186.074 27.769c-2.076 0-3.944-.428-5.605-1.282-1.636-.88-2.918-2.089-3.846-3.627-.928-1.539-1.392-3.285-1.392-5.239 0-1.954.464-3.7 1.392-5.239.928-1.538 2.21-2.735 3.846-3.59 1.661-.88 3.529-1.319 5.605-1.319 2.076 0 3.932.44 5.569 1.32 1.636.854 2.918 2.05 3.846 3.59.928 1.538 1.392 3.284 1.392 5.238 0 1.954-.464 3.7-1.392 5.239-.928 1.538-2.21 2.747-3.846 3.627-1.637.854-3.493 1.282-5.569 1.282zm0-4.69c1.466 0 2.662-.488 3.59-1.465.953-1.001 1.429-2.332 1.429-3.993 0-1.66-.476-2.98-1.429-3.956-.928-1.002-2.124-1.502-3.59-1.502-1.465 0-2.674.5-3.626 1.502-.953.977-1.429 2.295-1.429 3.956 0 1.66.476 2.992 1.429 3.993.952.977 2.161 1.466 3.626 1.466zM200.701.293h5.715v27.183h-5.715V.293zM125.501 32.19v19.709h-5.422v-2.345c-.757.855-1.661 1.514-2.711 1.978-1.05.44-2.186.66-3.407.66-2.589 0-4.64-.745-6.155-2.235-1.514-1.49-2.271-3.7-2.271-6.63V32.188h5.715v10.294c0 3.175 1.331 4.763 3.993 4.763 1.368 0 2.467-.44 3.297-1.319.831-.904 1.246-2.234 1.246-3.993v-9.745h5.715zM142.445 31.896c1.832 0 3.493.428 4.983 1.282 1.514.83 2.698 2.015 3.553 3.554.855 1.514 1.282 3.285 1.282 5.312s-.427 3.81-1.282 5.349c-.855 1.514-2.039 2.698-3.553 3.553-1.49.83-3.151 1.246-4.983 1.246-2.515 0-4.494-.794-5.935-2.382v9.196h-5.715V32.189h5.459v2.272c1.417-1.71 3.48-2.565 6.191-2.565zm-.989 15.606c1.465 0 2.662-.488 3.59-1.465.953-1.001 1.429-2.332 1.429-3.993 0-1.66-.476-2.98-1.429-3.957-.928-1-2.125-1.502-3.59-1.502-1.465 0-2.674.501-3.627 1.502-.928.977-1.392 2.296-1.392 3.957 0 1.66.464 2.992 1.392 3.993.953.977 2.162 1.465 3.627 1.465zM167.739 31.896c1.831 0 3.492.428 4.982 1.282 1.514.83 2.699 2.015 3.554 3.554.854 1.514 1.282 3.285 1.282 5.312s-.428 3.81-1.282 5.349c-.855 1.514-2.04 2.698-3.554 3.553-1.49.83-3.151 1.246-4.982 1.246-2.516 0-4.494-.794-5.935-2.382v9.196h-5.715V32.189h5.459v2.272c1.416-1.71 3.48-2.565 6.191-2.565zm-.989 15.606c1.465 0 2.662-.488 3.59-1.465.952-1.001 1.429-2.332 1.429-3.993 0-1.66-.477-2.98-1.429-3.957-.928-1-2.125-1.502-3.59-1.502-1.466 0-2.675.501-3.627 1.502-.928.977-1.392 2.296-1.392 3.957 0 1.66.464 2.992 1.392 3.993.952.977 2.161 1.465 3.627 1.465z"/>
    <path fill="#000" d="M181.383 24.716h5.714v27.183h-5.714V24.716zM211.964 32.19l-8.902 20.918c-.904 2.27-2.027 3.87-3.37 4.799-1.319.928-2.919 1.392-4.799 1.392-1.026 0-2.04-.159-3.041-.477-1.001-.317-1.82-.757-2.455-1.318l2.089-4.067c.439.391.94.696 1.502.916.586.22 1.16.33 1.721.33.782 0 1.417-.196 1.905-.586.489-.367.929-.99 1.319-1.869l.074-.183-8.536-19.856h5.898l5.532 13.372 5.568-13.372h5.495z"/>
    <path fill="#329D23" d="M85.037 58.768c-4.045 0-7.156-.933-9.334-2.799-2.1-1.865-3.15-3.964-3.15-6.296 0-2.021.738-3.77 2.216-5.247 1.478-1.477 3.656-2.216 6.535-2.216 1.01 0 2.178.117 3.5.35l3.15.35c-.077-2.021-.544-3.926-1.4-5.714-.778-1.788-1.789-3.498-3.034-5.13-1.244-1.71-2.41-3.187-3.5-4.431-2.411 4.586-4.823 8.395-7.234 11.427-2.334 3.032-4.9 5.908-7.701 8.629-1.4 1.399-2.878 2.098-4.434 2.098-1.245 0-2.256-.427-3.034-1.282-.778-.933-1.167-2.06-1.167-3.382 0-1.554.545-2.992 1.634-4.314l1.517-1.866c4.278-5.286 7.506-9.639 9.684-13.06 1.4-2.254 2.8-4.935 4.2-8.045 1.479-3.11 3.385-7.346 5.718-12.71C80.681 1.71 83.753 0 88.421 0c2.178 0 3.695.194 4.55.583.856.389 1.284 1.01 1.284 1.866 0 .466-.155 1.205-.466 2.215-.312 1.01-.74 2.021-1.284 3.032-1.4 2.798-2.1 5.17-2.1 7.113 0 1.166.389 2.448 1.167 3.847.855 1.4 2.139 3.149 3.85 5.248 2.49 3.264 4.356 6.063 5.601 8.395 1.322 2.254 1.983 4.742 1.983 7.462 0 3.265-.777 6.375-2.333 9.329-1.478 2.876-3.578 5.208-6.301 6.996-2.723 1.788-5.834 2.682-9.335 2.682zM13.546 40.43c.238 0 .42.11.55.329.146.22.219.522.219.907 0 .732-.174 1.3-.522 1.703-.788.97-1.649 1.768-2.583 2.39-.934.623-2.006.935-3.215.935-3.736 0-5.605-2.629-5.605-7.886 0-.806.028-1.621.083-2.445H1.4c-.55 0-.925-.101-1.126-.303C.092 35.86 0 35.538 0 35.1c0-1.026.412-1.539 1.236-1.539h1.567c.31-2.015.787-3.856 1.428-5.522.641-1.667 1.41-2.995 2.308-3.984.916-.99 1.896-1.484 2.94-1.484.77 0 1.374.339 1.814 1.017.44.677.659 1.529.659 2.555 0 2.839-1.19 5.312-3.572 7.418h3.077c.293 0 .504.064.632.193.129.128.193.366.193.714 0 1.264-1.035 1.896-3.105 1.896H5.825c-.037.916-.055 1.63-.055 2.143 0 1.905.22 3.242.66 4.011.457.77 1.172 1.154 2.142 1.154.788 0 1.484-.238 2.089-.714.604-.476 1.319-1.19 2.143-2.143.22-.257.467-.385.742-.385zM8.737 25.207c-.274 0-.586.348-.934 1.044-.33.677-.65 1.63-.962 2.857-.293 1.21-.54 2.555-.741 4.04 1.08-.935 1.886-1.98 2.418-3.133.549-1.172.824-2.235.824-3.187 0-1.081-.202-1.621-.605-1.621z"/>
    <path fill="#329D23" d="M26.09 38.121c.239 0 .422.12.55.357.128.239.192.54.192.907 0 .88-.265 1.401-.797 1.566-1.099.385-2.308.605-3.626.66-.348 1.538-1.035 2.775-2.061 3.709-1.026.916-2.189 1.374-3.49 1.374-1.099 0-2.042-.266-2.83-.797-.769-.531-1.355-1.236-1.758-2.116-.403-.879-.604-1.831-.604-2.857 0-1.392.265-2.629.796-3.71.532-1.099 1.264-1.95 2.199-2.555.934-.623 1.969-.934 3.104-.934 1.392 0 2.51.486 3.352 1.456.861.953 1.365 2.134 1.511 3.545.861-.055 1.887-.238 3.078-.55.146-.037.275-.055.384-.055zm-9.012 5.66c.587 0 1.09-.238 1.512-.714.44-.476.732-1.163.879-2.06-.568-.386-1.008-.89-1.32-1.512-.292-.623-.439-1.282-.439-1.978 0-.293.028-.586.083-.88h-.138c-.732 0-1.346.358-1.84 1.072-.477.696-.715 1.685-.715 2.967 0 1.008.193 1.777.577 2.308.403.532.87.797 1.401.797z"/>
    <path fill="#329D23" d="M37.426 40.43c.238 0 .421.11.55.329.146.22.22.522.22.907 0 .732-.175 1.3-.523 1.703-.787.97-1.648 1.768-2.583 2.39-.934.623-2.005.935-3.214.935-3.737 0-5.605-2.629-5.605-7.886 0-.806.027-1.621.082-2.445h-1.071c-.55 0-.925-.101-1.127-.303-.183-.201-.275-.522-.275-.961 0-1.026.413-1.539 1.237-1.539h1.566c.311-2.015.788-3.856 1.429-5.522.64-1.667 1.41-2.995 2.308-3.984.915-.99 1.895-1.484 2.94-1.484.769 0 1.373.339 1.813 1.017.44.677.66 1.529.66 2.555 0 2.839-1.191 5.312-3.572 7.418h3.077c.293 0 .504.064.632.193.128.128.192.366.192.714 0 1.264-1.035 1.896-3.105 1.896h-3.352c-.036.916-.055 1.63-.055 2.143 0 1.905.22 3.242.66 4.011.458.77 1.172 1.154 2.143 1.154.787 0 1.483-.238 2.088-.714s1.319-1.19 2.143-2.143c.22-.257.467-.385.742-.385zm-4.808-15.222c-.275 0-.587.348-.935 1.044-.33.677-.65 1.63-.961 2.857-.293 1.21-.54 2.555-.742 4.04 1.08-.935 1.887-1.98 2.418-3.133.55-1.172.824-2.235.824-3.187 0-1.081-.201-1.621-.604-1.621z"/>
    <path fill="#329D23" d="M39.338 46.694c-1.136 0-2.043-.413-2.72-1.237-.678-.824-1.017-1.905-1.017-3.242 0-1.465.339-2.848 1.017-4.149.677-1.319 1.575-2.372 2.692-3.16 1.136-.805 2.336-1.208 3.6-1.208.403 0 .668.082.796.247.147.146.266.421.357.824.385-.073.788-.11 1.21-.11.897 0 1.346.32 1.346.962 0 .385-.138 1.3-.412 2.747-.422 2.107-.632 3.572-.632 4.397 0 .274.064.494.192.66.147.164.33.246.55.246.348 0 .769-.22 1.263-.66.495-.457 1.164-1.19 2.006-2.197.22-.257.467-.385.742-.385.238 0 .421.11.55.33.146.22.22.522.22.907 0 .732-.175 1.3-.523 1.703-.75.934-1.547 1.722-2.39 2.363-.843.641-1.658.962-2.445.962-.605 0-1.164-.202-1.677-.605-.494-.421-.87-.989-1.126-1.703-.953 1.538-2.152 2.308-3.6 2.308zm.989-2.775c.403 0 .788-.238 1.154-.715.366-.476.632-1.108.797-1.896l1.016-5.055c-.77.018-1.483.311-2.143.88-.641.549-1.154 1.281-1.539 2.197-.384.916-.577 1.887-.577 2.913 0 .567.11.989.33 1.264.238.274.559.412.962.412z"/>
    <path fill="#329D23" d="M56.805 42.682c.201-.183.403-.275.604-.275.22 0 .394.129.522.385.147.238.22.531.22.88 0 .769-.275 1.382-.824 1.84-.953.788-2.033 1.182-3.242 1.182-1.74 0-3.014-.724-3.82-2.17-.805-1.466-1.208-3.371-1.208-5.716 0-2.235.283-4.78.851-7.638.587-2.858 1.438-5.312 2.556-7.364 1.135-2.051 2.482-3.077 4.039-3.077.879 0 1.566.412 2.06 1.236.513.806.77 1.97.77 3.49 0 2.18-.605 4.707-1.814 7.583-1.19 2.876-2.82 5.715-4.89 8.518.128.75.357 1.291.686 1.62.33.33.779.495 1.347.495.311 0 .66-.091 1.044-.274.403-.184.77-.422 1.099-.715zm-.907-19.233c-.421 0-.897.76-1.429 2.28-.53 1.52-.998 3.408-1.4 5.66-.404 2.254-.624 4.415-.66 6.485 1.3-2.143 2.335-4.286 3.105-6.43.769-2.16 1.153-4.13 1.153-5.907 0-1.392-.256-2.088-.769-2.088z"/>
</svg>
